<svg viewBox="0 0 950 1350" xmlns="http://www.w3.org/2000/svg">
  <!-- Styles -->
  <defs>
    <style>
      .node { fill: #fff; stroke: #777; stroke-width: 1; filter: drop-shadow(0px 2px 3px rgba(0,0,0,0.2)); }
      .operation { fill: #eaf1ff; stroke: #4285f4; stroke-width: 1.5; }
      .variable { fill: #fff4e3; stroke: #f4b400; stroke-width: 1.5; }
      .tensor { fill: #ecfdf0; stroke: #0f9d58; stroke-width: 1.5; }
      .flow { stroke: #5f6368; stroke-width: 1.5; marker-end: url(#arrowhead); }
      .skip-flow { stroke: #0f9d58; stroke-width: 1.5; stroke-dasharray: 5,3; marker-end: url(#arrowhead-skip); }
      .text { font-family: 'Roboto', Arial, sans-serif; font-size: 14px; fill: #3c4043; }
      .small-text { font-family: 'Roboto', Arial, sans-serif; font-size: 12px; fill: #5f6368; }
      .title { font-family: 'Roboto', Arial, sans-serif; font-size: 20px; font-weight: bold; fill: #202124; }
      .section-header { font-family: 'Roboto', Arial, sans-serif; font-size: 16px; font-weight: bold; fill: #4285f4; }
      .legend-box { fill: #f8f9fa; stroke: #dadce0; stroke-width: 1; }
      .legend-item { font-family: 'Roboto', Arial, sans-serif; font-size: 12px; fill: #3c4043; }
      .dimension-text { font-family: 'Roboto', Arial, sans-serif; font-size: 10px; fill: #5f6368; font-style: italic; }
      .group { fill: #f8f9fa; stroke: #dadce0; stroke-width: 1; rx: 8; opacity: 0.7; }
      .scope-label { font-family: 'Roboto', Arial, sans-serif; font-size: 14px; fill: #5f6368; font-style: italic; }
    </style>
    <marker id="arrowhead" markerWidth="8" markerHeight="6" refX="7" refY="3" orient="auto">
      <polygon points="0 0, 8 3, 0 6" fill="#5f6368" />
    </marker>
    <marker id="arrowhead-skip" markerWidth="8" markerHeight="6" refX="7" refY="3" orient="auto">
      <polygon points="0 0, 8 3, 0 6" fill="#0f9d58" />
    </marker>
    <filter id="hover-shadow" x="-20%" y="-20%" width="140%" height="140%">
      <feGaussianBlur in="SourceAlpha" stdDeviation="3" />
      <feOffset dx="0" dy="2" result="offsetblur" />
      <feComponentTransfer>
        <feFuncA type="linear" slope="0.3" />
      </feComponentTransfer>
      <feMerge>
        <feMergeNode />
        <feMergeNode in="SourceGraphic" />
      </feMerge>
    </filter>
  </defs>

  <!-- Title - moved closer to content -->
  <text x="600" y="30" class="title" text-anchor="middle">Custom SegFormer3D with Efficient Attention</text>

  <!-- Input - moved up to reduce the gap -->
  <rect x="500" y="60" width="200" height="40" rx="5" class="tensor" />
  <text x="600" y="85" text-anchor="middle" class="text">Input Tensor [B, 1, D, H, W]</text>
  <line x1="600" y1="100" x2="600" y2="115" class="flow" />

  <!-- Encoder Stage 1 - repositioned up -->
  <g>
    <rect x="250" y="115" width="700" height="180" class="group" />
    <text x="270" y="135" class="scope-label">Encoder Stage 1</text>
    
    <rect x="500" y="130" width="200" height="40" rx="5" class="operation" />
    <text x="600" y="155" text-anchor="middle" class="text">OverlapPatchEmbed 1</text>
    <text x="600" y="182" text-anchor="middle" class="dimension-text">patch_size=3, stride=2</text>
    <line x1="600" y1="170" x2="600" y2="195" class="flow" />
    
    <rect x="500" y="195" width="200" height="40" rx="5" class="tensor" />
    <text x="600" y="220" text-anchor="middle" class="text">Feature Map [B, N, C=32]</text>
    <line x1="600" y1="235" x2="600" y2="250" class="flow" />
    
    <g>
      <rect x="320" y="250" width="160" height="30" rx="5" class="variable" />
      <text x="400" y="270" text-anchor="middle" class="small-text">DyT Parameters</text>
      <line x1="480" y1="265" x2="500" y2="265" class="flow" />
    </g>
    
    <rect x="500" y="250" width="200" height="40" rx="5" class="operation" />
    <text x="600" y="275" text-anchor="middle" class="text">Transformer Blocks × 2</text>
    
    <g>
      <rect x="720" y="250" width="160" height="30" rx="5" class="variable" />
      <text x="800" y="270" text-anchor="middle" class="small-text">Attention Parameters</text>
      <line x1="720" y1="265" x2="700" y2="265" class="flow" />
    </g>
    
    <!-- Skip connection storage point -->
    <circle cx="800" cy="290" r="5" fill="#0f9d58" />
  </g>
  <line x1="600" y1="290" x2="600" y2="310" class="flow" />

  <!-- Encoder Stage 2 - repositioned up -->
  <g>
    <rect x="250" y="310" width="700" height="180" class="group" />
    <text x="270" y="330" class="scope-label">Encoder Stage 2</text>
    
    <rect x="500" y="325" width="200" height="40" rx="5" class="operation" />
    <text x="600" y="350" text-anchor="middle" class="text">OverlapPatchEmbed 2</text>
    <text x="600" y="377" text-anchor="middle" class="dimension-text">patch_size=3, stride=2</text>
    <line x1="600" y1="365" x2="600" y2="390" class="flow" />
    
    <rect x="500" y="390" width="200" height="40" rx="5" class="tensor" />
    <text x="600" y="415" text-anchor="middle" class="text">Feature Map [B, N, C=64]</text>
    <line x1="600" y1="430" x2="600" y2="445" class="flow" />
    
    <g>
      <rect x="320" y="445" width="160" height="30" rx="5" class="variable" />
      <text x="400" y="465" text-anchor="middle" class="small-text">DyT Parameters</text>
      <line x1="480" y1="460" x2="500" y2="460" class="flow" />
    </g>
    
    <rect x="500" y="445" width="200" height="40" rx="5" class="operation" />
    <text x="600" y="470" text-anchor="middle" class="text">Transformer Blocks × 2</text>
    
    <g>
      <rect x="720" y="445" width="160" height="30" rx="5" class="variable" />
      <text x="800" y="465" text-anchor="middle" class="small-text">Attention Parameters</text>
      <line x1="720" y1="460" x2="700" y2="460" class="flow" />
    </g>
    
    <!-- Skip connection storage point -->
    <circle cx="800" cy="485" r="5" fill="#0f9d58" />
  </g>
  <line x1="600" y1="485" x2="600" y2="505" class="flow" />

  <!-- Encoder Stage 3 - repositioned up -->
  <g>
    <rect x="250" y="505" width="700" height="180" class="group" />
    <text x="270" y="525" class="scope-label">Encoder Stage 3</text>
    
    <rect x="500" y="520" width="200" height="40" rx="5" class="operation" />
    <text x="600" y="545" text-anchor="middle" class="text">OverlapPatchEmbed 3</text>
    <text x="600" y="572" text-anchor="middle" class="dimension-text">patch_size=3, stride=2</text>
    <line x1="600" y1="560" x2="600" y2="585" class="flow" />
    
    <rect x="500" y="585" width="200" height="40" rx="5" class="tensor" />
    <text x="600" y="610" text-anchor="middle" class="text">Feature Map [B, N, C=128]</text>
    <line x1="600" y1="625" x2="600" y2="640" class="flow" />
    
    <g>
      <rect x="320" y="640" width="160" height="30" rx="5" class="variable" />
      <text x="400" y="660" text-anchor="middle" class="small-text">DyT Parameters</text>
      <line x1="480" y1="655" x2="500" y2="655" class="flow" />
    </g>
    
    <rect x="500" y="640" width="200" height="40" rx="5" class="operation" />
    <text x="600" y="665" text-anchor="middle" class="text">Transformer Blocks × 8</text>
    
    <g>
      <rect x="720" y="640" width="160" height="30" rx="5" class="variable" />
      <text x="800" y="660" text-anchor="middle" class="small-text">Attention Parameters</text>
      <line x1="720" y1="655" x2="700" y2="655" class="flow" />
    </g>
    
    <!-- Skip connection storage point -->
    <circle cx="800" cy="680" r="5" fill="#0f9d58" />
  </g>
  <line x1="600" y1="680" x2="600" y2="700" class="flow" />

  <!-- Encoder Stage 4 - repositioned up -->
  <g>
    <rect x="250" y="700" width="700" height="180" class="group" />
    <text x="270" y="720" class="scope-label">Encoder Stage 4</text>
    
    <rect x="500" y="715" width="200" height="40" rx="5" class="operation" />
    <text x="600" y="740" text-anchor="middle" class="text">OverlapPatchEmbed 4</text>
    <text x="600" y="767" text-anchor="middle" class="dimension-text">patch_size=3, stride=2</text>
    <line x1="600" y1="755" x2="600" y2="780" class="flow" />
    
    <rect x="500" y="780" width="200" height="40" rx="5" class="tensor" />
    <text x="600" y="805" text-anchor="middle" class="text">Feature Map [B, N, C=256]</text>
    <line x1="600" y1="820" x2="600" y2="835" class="flow" />
    
    <g>
      <rect x="320" y="835" width="160" height="30" rx="5" class="variable" />
      <text x="400" y="855" text-anchor="middle" class="small-text">DyT Parameters</text>
      <line x1="480" y1="850" x2="500" y2="850" class="flow" />
    </g>
    
    <rect x="500" y="835" width="200" height="40" rx="5" class="operation" />
    <text x="600" y="860" text-anchor="middle" class="text">Transformer Blocks × 2</text>
    
    <g>
      <rect x="720" y="835" width="160" height="30" rx="5" class="variable" />
      <text x="800" y="855" text-anchor="middle" class="small-text">Attention Parameters</text>
      <line x1="720" y1="850" x2="700" y2="850" class="flow" />
    </g>
  </g>
  <line x1="600" y1="875" x2="600" y2="895" class="flow" />

  <!-- Decoder Path - moved up and adjusted to reduce gap -->
  <g>
    <rect x="250" y="895" width="700" height="380" class="group" />
    <text x="270" y="915" class="scope-label">Decoder Path</text>
    
    <rect x="500" y="905" width="200" height="40" rx="5" class="operation" />
    <text x="600" y="930" text-anchor="middle" class="text">LinearMLP C4</text>
    <line x1="600" y1="945" x2="600" y2="960" class="flow" />
    
    <rect x="425" y="960" width="350" height="40" rx="5" class="tensor" />
    <text x="600" y="985" text-anchor="middle" class="text">C4 Projected [B, 128, D/16, H/16, W/16]</text>
    <line x1="600" y1="1000" x2="600" y2="1015" class="flow" />
    
    <rect x="500" y="1015" width="200" height="40" rx="5" class="operation" />
    <text x="600" y="1040" text-anchor="middle" class="text">Upsampling + Skip Fusion 1</text>
    
    <!-- Skip connection from Stage 3 - adjusted for new positions -->
    <path d="M 800 680 C 900 680, 900 1035, 700 1035" class="skip-flow" fill="none" />
    <rect x="350" y="1015" width="120" height="30" rx="5" class="operation" />
    <text x="410" y="1035" text-anchor="middle" class="small-text">LinearMLP C3</text>
    <line x1="470" y1="1030" x2="500" y2="1030" class="flow" />
    
    <line x1="600" y1="1055" x2="600" y2="1070" class="flow" />
    
    <rect x="500" y="1070" width="200" height="40" rx="5" class="operation" />
    <text x="600" y="1095" text-anchor="middle" class="text">Upsampling + Skip Fusion 2</text>
    
    <!-- Skip connection from Stage 2 - adjusted for new positions -->
    <path d="M 800 485 C 920 485, 920 1090, 700 1090" class="skip-flow" fill="none" />
    <rect x="350" y="1070" width="120" height="30" rx="5" class="operation" />
    <text x="410" y="1090" text-anchor="middle" class="small-text">LinearMLP C2</text>
    <line x1="470" y1="1085" x2="500" y2="1085" class="flow" />
    
    <line x1="600" y1="1110" x2="600" y2="1125" class="flow" />
    
    <rect x="500" y="1125" width="200" height="40" rx="5" class="operation" />
    <text x="600" y="1150" text-anchor="middle" class="text">Upsampling + Skip Fusion 3</text>
    
    <!-- Skip connection from Stage 1 - adjusted for new positions -->
    <path d="M 800 290 C 940 290, 940 1145, 700 1145" class="skip-flow" fill="none" />
    <rect x="350" y="1125" width="120" height="30" rx="5" class="operation" />
    <text x="410" y="1145" text-anchor="middle" class="small-text">LinearMLP C1</text>
    <line x1="470" y1="1140" x2="500" y2="1140" class="flow" />
    
    <line x1="600" y1="1165" x2="600" y2="1180" class="flow" />
    
    <rect x="500" y="1180" width="200" height="40" rx="5" class="operation" />
    <text x="600" y="1205" text-anchor="middle" class="text">linear_fuse + dropout</text>
    <line x1="600" y1="1220" x2="600" y2="1235" class="flow" />
  </g>
  
  <!-- Final Prediction - repositioned up -->
  <rect x="500" y="1215" width="200" height="40" rx="5" class="operation" />
  <text x="600" y="1240" text-anchor="middle" class="text">linear_pred</text>
  <text x="600" y="1267" text-anchor="middle" class="dimension-text">Conv3D → GELU → Conv3D</text>
  <line x1="600" y1="1255" x2="600" y2="1280" class="flow" />
  
  

  <!-- Output - repositioned up -->
  <rect x="425" y="1285" width="350" height="40" rx="5" class="tensor" />
  <text x="600" y="1310" text-anchor="middle" class="text">Output [B, num_classes, D, H, W]</text>

  <!-- Expanded View of Key Components in sidebar - adjusted to fit new diagram height -->
  <g transform="translate(20, 50)">
    <rect x="0" y="0" width="200" height="650" class="legend-box" rx="5" />
    <text x="10" y="25" class="section-header">Key Components Detail</text>
    
    <!-- DyT -->
    <rect x="10" y="40" width="180" height="80" class="operation" rx="5" filter="url(#hover-shadow)" />
    <text x="100" y="60" text-anchor="middle" class="text">DyT</text>
    <text x="100" y="80" text-anchor="middle" class="small-text">y = tanh(α·x)·w + b</text>
    <text x="100" y="100" text-anchor="middle" class="small-text">Learnable: α, w, b</text>
    
    <!-- EfficientAttention -->
    <rect x="10" y="140" width="180" height="110" class="operation" rx="5" filter="url(#hover-shadow)" />
    <text x="100" y="160" text-anchor="middle" class="text">EfficientAttention</text>
    <text x="100" y="180" text-anchor="middle" class="small-text">- Memory-efficient MHSA</text>
    <text x="100" y="200" text-anchor="middle" class="small-text">- Separate Q,K,V projections</text>
    <text x="100" y="220" text-anchor="middle" class="small-text">- Optional spatial reduction</text>
    <text x="100" y="240" text-anchor="middle" class="small-text">- Uses scaled_dot_product_attn</text>
    
    <!-- Block -->
    <rect x="10" y="270" width="180" height="110" class="operation" rx="5" filter="url(#hover-shadow)" />
    <text x="100" y="290" text-anchor="middle" class="text">Block</text>
    <text x="100" y="310" text-anchor="middle" class="small-text">- DyT normalization</text>
    <text x="100" y="330" text-anchor="middle" class="small-text">- EfficientAttention</text>
    <text x="100" y="350" text-anchor="middle" class="small-text">- Depthwise Conv MLP</text>
    <text x="100" y="370" text-anchor="middle" class="small-text">- DropPath (stochastic depth)</text>
    
    <!-- EfficientSkipConnection -->
    <rect x="10" y="400" width="180" height="80" class="operation" rx="5" filter="url(#hover-shadow)" />
    <text x="100" y="420" text-anchor="middle" class="text">EfficientSkipConnection</text>
    <text x="100" y="440" text-anchor="middle" class="small-text">- Feature concatenation</text>
    <text x="100" y="460" text-anchor="middle" class="small-text">- Channel reduction via Conv3D</text>
    
    <!-- Legend Section -->
    <text x="10" y="505" class="section-header">Legend</text>
    
    <rect x="10" y="520" width="20" height="15" class="operation" rx="2" />
    <text x="40" y="532" class="legend-item">Operation</text>
    
    <rect x="10" y="545" width="20" height="15" class="variable" rx="2" />
    <text x="40" y="557" class="legend-item">Variable/Parameter</text>
    
    <rect x="10" y="570" width="20" height="15" class="tensor" rx="2" />
    <text x="40" y="582" class="legend-item">Tensor/Feature Map</text>
    
    <line x1="10" y1="595" x2="30" y2="595" class="flow" />
    <text x="40" y="600" class="legend-item">Regular Flow</text>
    
    <line x1="10" y1="620" x2="30" y2="620" class="skip-flow" />
    <text x="40" y="625" class="legend-item">Skip Connection</text>
  </g>
</svg>