<?xml version="1.0" standalone="no"?>
<!DOCTYPE svg PUBLIC "-//W3C//DTD SVG 20010904//EN"
 "http://www.w3.org/TR/2001/REC-SVG-20010904/DTD/svg10.dtd">
<svg version="1.0" xmlns="http://www.w3.org/2000/svg"
 width="69.000000pt" height="69.000000pt" viewBox="0 0 69.000000 69.000000"
 preserveAspectRatio="xMidYMid meet">
<metadata>
Created by potrace 1.10, written by Peter Selinger 2001-2011
</metadata>
<g transform="translate(0.000000,69.000000) scale(0.100000,-0.100000)"
fill="#000000" stroke="none">
<path d="M259 577 c-18 -12 -44 -38 -56 -57 -13 -19 -38 -51 -57 -70 -46 -47
-56 -70 -56 -126 0 -101 79 -174 187 -174 l51 0 -2 -32 c-1 -27 3 -33 19 -33
18 0 20 7 21 74 l1 75 50 47 c45 43 49 49 34 63 -14 14 -19 13 -52 -20 l-38
-37 6 97 6 96 -28 0 -28 0 6 -76 6 -77 -39 38 c-34 33 -41 36 -55 25 -14 -12
-10 -19 36 -66 45 -45 53 -60 55 -94 l2 -40 -44 0 c-96 0 -162 67 -151 154 4
31 15 49 45 76 21 19 42 44 46 56 3 11 20 34 37 50 26 25 38 29 84 29 46 0 58
-4 84 -29 17 -16 34 -39 37 -50 4 -12 25 -37 46 -56 49 -43 60 -97 33 -154
-19 -41 -84 -81 -116 -73 -15 4 -19 0 -19 -19 0 -19 5 -24 27 -24 84 0 163 84
163 174 0 56 -10 79 -56 126 -19 19 -44 51 -57 70 -52 80 -155 106 -228 57z"/>
</g>
</svg>
