<svg version="1.1" id="Layer_1" xmlns="http://www.w3.org/2000/svg" xmlns:xlink="http://www.w3.org/1999/xlink" x="0px" y="0px"
	 width="100%" viewBox="0 0 544 656" enable-background="new 0 0 544 656" xml:space="preserve">
<path fill="#000000" opacity="1.000000" stroke="none" 
	d="
M359.324707,653.409058 
	C336.557983,655.213623 314.248566,654.245911 291.937775,653.716736 
	C284.990295,653.551941 278.035583,653.691101 271.640228,653.691101 
	C270.630219,651.782227 270.937286,651.057617 271.681366,650.523071 
	C295.372803,633.501648 314.957214,612.038818 335.551300,591.650085 
	C375.087311,552.508362 423.276276,532.025635 478.200073,526.983276 
	C487.479492,526.131409 493.686615,523.693604 495.738068,514.117371 
	C496.146973,512.208557 497.420593,510.507812 497.441467,507.897888 
	C492.194641,505.127075 486.184143,505.888977 480.608948,505.776947 
	C459.084259,505.344482 437.707062,506.862488 416.812500,512.694397 
	C385.389648,521.464844 358.115082,537.584106 333.719330,558.983459 
	C315.122955,575.295715 299.219940,594.187622 282.253662,612.066040 
	C264.546295,630.725342 244.605743,646.020630 218.829178,651.749756 
	C200.118774,655.908325 181.395386,655.140137 162.982056,650.075256 
	C111.603592,635.942749 74.246063,603.600464 46.454403,559.224426 
	C34.878143,540.740051 26.599081,520.794312 22.168915,499.349548 
	C22.135225,499.186523 22.080902,499.027679 22.048687,498.864441 
	C19.758694,487.261444 21.461193,484.492218 33.085724,482.811188 
	C56.072968,479.487000 79.108513,478.879456 102.274902,481.386169 
	C130.772171,484.469788 157.708832,492.384857 183.027084,505.793396 
	C196.169769,512.753723 208.583908,520.844116 219.911591,530.498047 
	C222.455688,532.666260 223.971329,532.920654 226.436584,530.284485 
	C251.290146,503.707764 263.623322,472.520264 260.517242,436.017517 
	C258.737335,415.100159 249.889618,396.845703 235.779800,381.439484 
	C213.489609,357.101257 189.649857,334.260406 166.405960,310.845978 
	C131.538864,275.723114 96.548584,240.722519 61.646484,205.634354 
	C59.430943,203.406998 57.558960,202.011368 53.891422,202.902405 
	C39.904980,206.300537 27.567030,197.995148 24.112499,183.349854 
	C21.226927,171.116638 30.299320,156.804886 42.852356,153.787628 
	C61.577087,149.286911 77.384460,163.609589 75.083420,183.365067 
	C74.637085,187.197052 75.565331,189.656784 78.136673,192.148315 
	C134.269760,246.539200 188.860016,302.481689 244.378235,357.491211 
	C252.556046,365.594086 259.921021,374.369293 266.717072,384.116119 
	C268.047302,382.163788 267.639282,380.312042 267.640320,378.617676 
	C267.666718,336.122467 267.631317,293.627228 267.658905,251.131989 
	C267.662933,244.907303 265.231262,239.755539 260.987946,235.465881 
	C222.899536,196.961273 184.761078,158.506180 146.657196,120.016861 
	C144.777847,118.118507 142.871277,117.165497 140.010361,117.667297 
	C129.241852,119.556099 119.677826,114.802414 114.503952,105.269249 
	C109.070648,95.258064 110.362831,82.349091 117.588089,74.458611 
	C125.689384,65.611435 137.688889,63.220036 148.097153,68.378387 
	C158.590988,73.579163 164.388260,85.021301 161.497879,96.821976 
	C160.193680,102.146698 161.477097,105.243233 165.217163,108.933067 
	C197.719696,140.998947 230.002945,173.287109 262.356201,205.504349 
	C263.515778,206.659012 264.725250,207.763550 266.120880,209.090561 
	C267.829681,207.285797 267.654694,205.265244 267.655884,203.359756 
	C267.684235,158.028381 267.663177,112.696938 267.761536,67.365746 
	C267.767853,64.450012 266.390900,62.894794 264.392456,61.187386 
	C253.840256,52.171864 250.478012,41.055595 254.645279,29.577599 
	C258.858948,17.971722 268.973541,11.743049 282.182770,12.619702 
	C292.508118,13.304960 301.975922,21.788750 304.213043,32.839222 
	C306.543976,44.353256 302.853882,53.918217 293.622528,61.088898 
	C291.092743,63.053986 290.057739,65.012627 290.061737,68.148911 
	C290.161224,146.645721 290.181976,225.142609 290.244049,303.639465 
	C290.245178,305.066528 289.827850,306.654877 291.618835,308.392090 
	C296.187134,303.863617 300.285645,298.728394 305.392151,294.958557 
	C316.569397,286.707062 319.592651,276.177948 318.960632,262.561401 
	C317.880066,239.279312 318.934448,215.906036 318.554840,192.579788 
	C318.390503,182.479813 321.896118,174.378616 328.844666,167.525879 
	C344.385468,152.199341 359.887054,136.828415 375.687469,121.772392 
	C380.562012,117.127495 382.871674,112.720818 382.176178,105.473366 
	C380.132446,84.177010 394.344147,66.988380 415.521790,65.066589 
	C435.754974,63.230511 453.795258,75.743271 456.682159,97.341049 
	C458.634674,111.948776 453.331116,124.433533 440.999695,132.942200 
	C428.240295,141.746155 414.516937,142.446609 400.954376,134.824982 
	C397.150665,132.687439 395.080627,132.817276 392.136200,135.828415 
	C376.524658,151.793869 360.741882,167.591965 345.012970,183.442596 
	C342.719116,185.754211 341.097015,188.261749 341.115326,191.757309 
	C341.225067,212.755402 341.224884,233.754074 341.283936,254.752472 
	C341.285645,255.362946 341.536133,255.972733 341.852814,257.409454 
	C344.726593,254.860519 347.253143,252.809189 349.563965,250.538284 
	C361.925171,238.390564 374.200348,226.155136 386.588623,214.035217 
	C388.783325,211.888046 389.733093,209.895248 389.170715,206.596207 
	C387.225555,195.185043 394.016083,185.748276 405.019958,183.924500 
	C415.714722,182.151932 425.412140,189.296280 427.863861,200.754166 
	C430.055084,210.994659 423.388428,221.599625 412.674286,223.454727 
	C407.320435,224.381714 403.688751,226.937943 400.112000,230.559814 
	C373.064728,257.948486 345.924683,285.245514 318.820892,312.578400 
	C315.070648,316.360321 311.263000,320.091888 307.650970,324.002899 
	C298.264679,334.166199 291.785034,345.683105 290.734406,359.859497 
	C289.825043,372.130035 290.538300,384.365326 290.383148,396.807281 
	C321.224823,363.593842 354.326111,333.368439 385.644592,301.370941 
	C392.374451,294.495178 400.234741,291.240570 409.813934,291.638428 
	C415.303772,291.866486 420.813080,291.583374 426.310730,291.686066 
	C429.122131,291.738586 430.309021,290.789276 430.865875,287.811005 
	C433.580963,273.289215 443.772675,264.490906 457.685394,264.249146 
	C470.813324,264.021027 481.987885,273.208679 484.544220,287.250183 
	C486.536743,298.194672 483.296509,307.815369 474.220367,314.714783 
	C464.793915,321.880463 454.340424,322.450012 444.175232,316.869080 
	C439.206635,314.141174 434.433746,313.132233 429.013947,313.302155 
	C423.353394,313.479614 417.668854,313.564026 412.019653,313.246887 
	C406.228027,312.921814 401.755585,315.004150 397.770264,319.058563 
	C386.324677,330.702515 374.616608,342.089905 363.243591,353.803314 
	C350.130188,367.309235 336.223694,380.014923 323.523865,393.944763 
	C304.621765,414.677582 294.721313,438.629333 294.893585,466.924500 
	C295.044250,491.664948 300.744507,515.041260 310.037018,537.729736 
	C310.642395,539.207703 310.918793,540.976135 312.936188,542.152344 
	C319.952698,535.730469 327.241638,529.457642 334.811646,523.511597 
	C363.650085,500.859741 396.213989,486.855255 432.515930,482.043152 
	C461.067810,478.258423 489.652161,478.999054 518.088074,483.752106 
	C525.694763,485.023560 528.017151,488.416412 526.646912,495.929565 
	C518.526367,540.455139 495.934113,576.761658 463.060272,607.076172 
	C437.602722,630.551758 407.984039,645.969360 373.695618,652.038330 
	C369.079102,652.855408 364.470581,653.392761 359.324707,653.409058 
M69.570496,524.748169 
	C71.043961,525.019531 72.510780,525.335571 73.991837,525.555786 
	C121.018677,532.545593 163.203629,550.547485 199.923431,580.954285 
	C211.726028,590.727783 223.328339,600.728638 234.395386,611.343567 
	C236.057785,612.938049 237.802811,615.909363 240.651154,614.157654 
	C246.822250,610.362549 252.691025,606.096313 257.782562,600.311279 
	C252.577972,595.632629 247.840012,591.473816 243.212341,587.195740 
	C224.604935,569.993713 205.689560,553.214417 183.852814,540.049011 
	C144.171173,516.124817 101.466629,503.930603 54.930214,506.289154 
	C53.494602,506.361908 51.861248,505.998688 50.618359,507.974030 
	C52.206856,512.914917 53.831413,518.353699 57.212383,522.542664 
	C59.494896,525.370605 64.230713,523.374207 67.701172,524.528931 
	C68.011208,524.632080 68.359612,524.619934 69.570496,524.748169 
M460.409058,571.902954 
	C465.451355,565.997437 470.390717,560.018066 474.366882,553.056885 
	C442.235046,551.679749 346.583221,604.529724 339.338043,627.446045 
	C339.809753,627.592346 340.279114,627.859436 340.752747,627.867249 
	C363.938202,628.252075 386.084839,623.780701 406.910309,613.426208 
	C427.295959,603.290527 444.679108,589.227783 460.409058,571.902954 
M91.685753,554.937378 
	C85.284042,552.806580 78.853729,550.797607 71.790924,549.775452 
	C93.024071,593.509094 174.229919,638.522156 209.863205,626.716858 
	C203.318710,611.290100 135.312714,569.866455 91.685753,554.937378 
M263.075470,531.524048 
	C258.202728,538.077820 253.021332,544.384644 246.919113,549.824097 
	C244.044357,552.386658 244.238480,554.230530 247.021805,556.619324 
	C255.730988,564.093811 264.368011,571.653992 272.941071,579.284302 
	C274.951965,581.074036 276.390320,580.584290 278.044159,578.956665 
	C282.312378,574.756226 286.520660,570.484375 290.971283,566.483948 
	C293.527161,564.186646 293.269012,562.200806 291.612610,559.572144 
	C286.359863,551.236389 282.407837,542.249207 279.000885,533.033325 
	C277.071167,527.813416 275.457947,522.476379 273.466278,516.482239 
	C269.843170,521.748657 266.675140,526.353577 263.075470,531.524048 
M405.296143,91.909485 
	C401.158905,98.370529 400.606049,105.156471 404.734497,111.622704 
	C408.484894,117.496803 414.291779,120.445061 421.371460,119.461029 
	C428.482635,118.472626 433.647003,114.620865 436.001282,107.583092 
	C438.528656,100.027809 435.696838,92.439468 428.814301,88.148331 
	C421.121765,83.352188 412.573242,84.529724 405.296143,91.909485 
z"/>
<path fill="#000000" opacity="1.000000" stroke="none" 
	d="
M507.583313,208.761047 
	C498.266174,214.668686 489.113556,214.574417 480.651154,208.343994 
	C472.460266,202.313431 469.227661,193.863403 471.467590,183.666733 
	C473.606201,173.931320 480.913727,167.123474 490.629974,165.801254 
	C499.826782,164.549728 510.340454,169.586182 514.518616,177.244843 
	C519.419312,186.227966 518.365112,197.690399 511.910370,204.813477 
	C510.686249,206.164368 509.228943,207.303955 507.583313,208.761047 
z"/>
<path fill="#000000" opacity="1.000000" stroke="none" 
	d="
M36.187653,315.047546 
	C27.721910,308.301636 24.872835,299.774872 27.930065,291.073029 
	C30.878950,282.679565 38.710148,277.469238 48.070587,277.673004 
	C59.890907,277.930298 68.909126,288.184387 67.703804,299.996826 
	C66.513008,311.666840 56.012337,319.825470 44.474178,317.982605 
	C41.678253,317.536102 38.934914,316.819427 36.187653,315.047546 
z"/>
<path fill="#000000" opacity="1.000000" stroke="none" 
	d="
M112.123543,363.920685 
	C114.197914,347.207977 128.069839,338.980896 141.673492,345.973267 
	C150.145187,350.327789 154.335617,360.320801 151.645966,369.754944 
	C149.158691,378.479248 140.684967,384.690491 131.845734,384.268494 
	C121.763229,383.787079 114.117462,377.049530 112.584160,367.293152 
	C112.429382,366.308350 112.283813,365.322144 112.123543,363.920685 
z"/>
<path fill="#000000" opacity="1.000000" stroke="none" 
	d="
M174.478424,192.564407 
	C180.187515,200.108444 180.691299,207.851318 176.182129,215.067886 
	C172.593781,220.810822 165.606842,223.862106 159.018280,222.563583 
	C151.468506,221.075592 146.096771,215.416809 144.899353,207.690170 
	C143.812988,200.680115 147.527496,192.779007 153.502808,189.389893 
	C159.885864,185.769531 167.761551,186.872375 174.478424,192.564407 
z"/>
<path fill="#000000" opacity="1.000000" stroke="none" 
	d="
M442.981934,382.887939 
	C436.467194,389.112427 429.711792,390.492157 423.241577,387.143707 
	C416.814240,383.817474 413.594055,377.259888 414.624969,369.596863 
	C415.550323,362.718567 420.645691,357.661438 428.177612,356.145935 
	C433.786377,355.017395 440.261627,358.067230 443.944611,363.572144 
	C447.903198,369.489014 447.649536,376.238739 442.981934,382.887939 
z"/>
</svg>